<svg xmlns="http://www.w3.org/2000/svg" class="diagram" data-model="40" width="30020" height="30020"><style>svg{font-family:"Helvetica Neue",Helvetica,sans-serif;font-size:12px;background-color:#fff}svg .note .border{fill:#f9ed5a;stroke:#b5af62}svg .cont .border,svg .node .border,svg .caption .border{fill:#fff;stroke:#000}svg .cont .sep,svg .node .sep,svg .caption .sep{stroke:#000}svg .cont .head{stroke:none;fill:none;fill-opacity:.5}svg .cont .border{fill-opacity:.2}svg .cont text{font-weight:bold}svg .node .item rect{fill:none;stroke:none}svg .node .item text{dominant-baseline:text-after-edge;alignment-baseline:after-edge;fill:#000}svg .node .item.title rect{fill-opacity:.3}svg .node .item.title text{font-weight:bold}svg .node .item.empty text{text-anchor:middle}svg .caption text.title{font-weight:bold}svg .resize{fill:none;stroke:transparent;stroke-opacity:0;stroke-width:5px}svg .shape{fill:#fff;stroke:#000}svg .shape-title{font-weight:bold;fill:#000;dominant-baseline:text-after-edge;alignment-baseline:after-edge;text-anchor:middle}svg .link .border{fill:none;stroke:transparent;stroke-opacity:0;stroke-width:10px}svg .link .road{fill:none;stroke:#000;stroke-width:1.5;stroke-linejoin:round;stroke-linecap:round}svg .link .road.dashed{stroke-dasharray:5}svg .link .link-label{text-anchor:middle}</style><defs><filter id="shadow" height="130%"><feGaussianBlur in="SourceAlpha" stdDeviation="3"></feGaussianBlur><feOffset dx="2" dy="2" result="offsetblur"></feOffset><feComponentTransfer><feFuncA type="linear" slope="0.5"></feFuncA></feComponentTransfer><feMerge><feMergeNode></feMergeNode><feMergeNode in="SourceGraphic"></feMergeNode></feMerge></filter><marker id="start_1" markerWidth="12" markerHeight="12" refX="2" refY="6" orient="auto" markerUnits="strokeWidth"><path d="M10,2 L2,6 L10,10" fill="none" stroke="#000"></path></marker><marker id="end_1" markerWidth="12" markerHeight="12" refX="11" refY="6" orient="auto" markerUnits="strokeWidth"><path d="M2,2 L10,6 L2,10" fill="none" stroke="#000"></path></marker><marker id="start_2" markerWidth="12" markerHeight="12" refX="2" refY="6" orient="auto" markerUnits="strokeWidth"><path d="M10,2 L2,6 L10,10z" fill="#fff" stroke="#000"></path></marker><marker id="end_2" markerWidth="12" markerHeight="12" refX="11" refY="6" orient="auto" markerUnits="strokeWidth"><path d="M2,2 L10,6 L2,10z" fill="#fff" stroke="#000"></path></marker><marker id="start_3" markerWidth="22" markerHeight="12" refX="2" refY="6" orient="auto" markerUnits="strokeWidth"><path d="M10,2 L2,6 L10,10 L18,6z" fill="#000" stroke="#000"></path></marker><marker id="end_3" markerWidth="22" markerHeight="12" refX="19" refY="6" orient="auto" markerUnits="strokeWidth"><path d="M10,2 L2,6 L10,10 L18,6z" fill="#000" stroke="#000"></path></marker><marker id="start_4" markerWidth="22" markerHeight="12" refX="2" refY="6" orient="auto" markerUnits="strokeWidth"><path d="M10,2 L2,6 L10,10 L18,6z" fill="#fff" stroke="#000"></path></marker><marker id="end_4" markerWidth="22" markerHeight="12" refX="19" refY="6" orient="auto" markerUnits="strokeWidth"><path d="M10,2 L2,6 L10,10 L18,6z" fill="#fff" stroke="#000"></path></marker><marker id="start_6" markerWidth="16" markerHeight="16" refX="2" refY="8" orient="auto" markerUnits="strokeWidth"><path d="M0,0 L16,8 L0,16" fill="none" stroke="#000"></path></marker><marker id="end_6" markerWidth="12" markerHeight="16" refX="15" refY="8" orient="auto" markerUnits="strokeWidth"><path d="M16,0 L0,8 L16,16" fill="none" stroke="#000"></path></marker><pattern id="grid" width="20" height="20" patternUnits="userSpaceOnUse"><path d="M 20 0 L 0 0 0 20" stroke="#999" stroke-width="0.3" fill="none"></path></pattern></defs><g class="viewport" data-grid="20" transform="matrix(1 0 0 1 0 0)" data-zoom="1" data-x="0" data-y="0"><g class="background"><g class="grid"><rect x="-30000" y="-30000" width="60000" height="60000" fill="url(#grid)"></rect><line x1="-30000" y1="0" x2="30000" y2="0" class="axis"></line><line x1="0" y1="-30000" x2="0" y2="30000" class="axis"></line></g></g><g class="body"><g class="containers"></g><g class="links"><g data-render="0" data-label="true" class="link" data-obj="BPMStateTransition" data-id="73" data-from="BPMState" data-fromid="47" data-to="BPMState" data-toid="45" data-tpl="Transition" data-keys="{&quot;stm_name&quot;:&quot;DEMO_ORD_STATUS-P-C&quot;}" data-px1="57" data-py1="41"><path d="M 334 64 L 408.41015625 139.5 Q 482.8203125 215 517.91015625 229.5 L 553 244" class="road curved" marker-end="url(#end_1)" style="stroke: rgb(0, 0, 0); stroke-width: 1px;"></path><text class="link-label" transform="rotate(45 408,140)"><tspan x="408" y="140" dy="1.2em">Alert:DemoOrderCancellation</tspan><tspan x="408" y="140" dy="2.4em">DEMO_ADMIN</tspan><tspan x="408" y="140" dy="3.5999999999999996em">DEMO_USER</tspan></text></g><g data-render="0" data-label="true" class="link" data-obj="BPMStateTransition" data-id="71" data-from="BPMState" data-fromid="45" data-to="BPMState" data-toid="47" data-tpl="Transition" data-keys="{&quot;stm_name&quot;:&quot;DEMO_ORD_STATUS-C-P&quot;}" data-w="205" data-h="200"><path d="M 583 244 L 492.74609375 161 Q 402.4921875 78 381.74609375 71 L 361 64" class="road curved" marker-end="url(#end_1)" style="stroke: rgb(0, 0, 0); stroke-width: 1px;"></path><text class="link-label" transform="rotate(43 493,161)"><tspan x="493" y="161" dy="1.2em">DEMO_ADMIN</tspan></text></g><g data-render="0" data-label="true" class="link" data-obj="BPMStateTransition" data-id="75" data-from="BPMState" data-fromid="48" data-to="BPMState" data-toid="45" data-tpl="Transition" data-keys="{&quot;stm_name&quot;:&quot;DEMO_ORD_STATUS-V-C&quot;}"><path d="M 382 245 L 429.41796875 239.5 Q 476.8359375 234 496.91796875 239 L 517 244" class="road curved" marker-end="url(#end_1)" style="stroke: rgb(0, 0, 0); stroke-width: 1px;"></path><text class="link-label" transform="rotate(-7 429,240)"><tspan x="429" y="240" dy="1.2em">Alert:DemoOrderCancellation</tspan><tspan x="429" y="240" dy="2.4em">DEMO_ADMIN</tspan><tspan x="429" y="240" dy="3.5999999999999996em">DEMO_USER</tspan></text></g><g data-render="0" data-label="true" class="link" data-obj="BPMStateTransition" data-id="76" data-from="BPMState" data-fromid="48" data-to="BPMState" data-toid="46" data-tpl="Transition" data-keys="{&quot;stm_name&quot;:&quot;DEMO_ORD_STATUS-V-D&quot;}"><path d="M 291 278 L 295 418" class="road curved" marker-end="url(#end_1)" style="stroke: rgb(0, 0, 0); stroke-width: 1px;"></path><text class="link-label" transform="rotate(88 293,348)"><tspan x="293" y="348" dy="1.2em">Alert:DemoOrderDelivery</tspan><tspan x="293" y="348" dy="2.4em">DEMO_ADMIN</tspan><tspan x="293" y="348" dy="3.5999999999999996em">DEMO_USER</tspan></text></g><g data-render="0" data-label="true" class="link" data-obj="BPMStateTransition" data-id="77" data-from="BPMState" data-fromid="48" data-to="BPMState" data-toid="47" data-tpl="Transition" data-keys="{&quot;stm_name&quot;:&quot;DEMO_ORD_STATUS-V-P&quot;}" data-px2="54" data-py2="59"><path d="M 296 234 L 309.91796875 180.5 Q 323.8359375 127 315.41796875 95.5 L 307 64" class="road curved" marker-end="url(#end_1)" style="stroke: rgb(0, 0, 0); stroke-width: 1px;"></path><text class="link-label" transform="rotate(-75 310,181)"><tspan x="310" y="181" dy="1.2em">DEMO_ADMIN</tspan></text></g><g data-render="0" data-label="true" class="link" data-obj="BPMStateTransition" data-id="72" data-from="BPMState" data-fromid="45" data-to="BPMState" data-toid="48" data-tpl="Transition" data-keys="{&quot;stm_name&quot;:&quot;DEMO_ORD_STATUS-C-V&quot;}"><path d="M 522 288 L 448.41796875 307 Q 374.8359375 326 345.91796875 302 L 317 278" class="road curved" marker-end="url(#end_1)" style="stroke: rgb(0, 0, 0); stroke-width: 1px;"></path><text class="link-label" transform="rotate(-14 448,307)"><tspan x="448" y="307" dy="1.2em">DEMO_ADMIN</tspan></text></g><g data-render="0" data-label="true" class="link" data-obj="BPMStateTransition" data-id="74" data-from="BPMState" data-fromid="47" data-to="BPMState" data-toid="48" data-tpl="Transition" data-keys="{&quot;stm_name&quot;:&quot;DEMO_ORD_STATUS-P-V&quot;}"><path d="M 291 64 L 275.91796875 134.5 Q 260.8359375 205 269.41796875 219.5 L 278 234" class="road curved" marker-end="url(#end_1)" style="stroke: rgb(0, 0, 0); stroke-width: 1px;"></path><text class="link-label" transform="rotate(-78 276,135)"><tspan x="276" y="135" dy="1.2em">DEMO_ADMIN</tspan></text></g><g data-render="0" data-label="true" class="link" data-obj="BPMStateTransition" data-id="93" data-from="BPMState" data-fromid="47" data-to="BPMState" data-toid="60" data-tpl="Transition" data-keys="{&quot;stm_name&quot;:&quot;DEMO_ORD_STATUS-P-H&quot;}"><path d="M 209 59 L 141 72.5 Q 73 86 76 105 L 79 124" class="road curved bridge" marker-end="url(#end_1)" style="stroke: rgb(0, 0, 0); stroke-width: 1.2px;"></path><text class="link-label" transform="rotate(-11 141,73)"><tspan x="141" y="73" dy="1.2em">DEMO_ADMIN</tspan></text></g><g data-render="0" data-label="true" class="link" data-obj="BPMStateTransition" data-id="94" data-from="BPMState" data-fromid="60" data-to="BPMState" data-toid="47" data-tpl="Transition" data-keys="{&quot;stm_name&quot;:&quot;DEMO_ORD_STATUS-H-P&quot;}"><path d="M 144 129 L 193 115.5 Q 242 102 259 83 L 276 64" class="road curved bridge" marker-end="url(#end_1)" style="stroke: rgb(0, 0, 0); stroke-width: 1.2px;"></path><text class="link-label" transform="rotate(-15 193,116)"><tspan x="193" y="116" dy="1.2em">DEMO_ADMIN</tspan></text></g><g data-render="0" data-label="true" class="link" data-obj="BPMStateTransition" data-id="95" data-from="BPMState" data-fromid="60" data-to="BPMState" data-toid="48" data-tpl="Transition" data-keys="{&quot;stm_name&quot;:&quot;DEMO_ORD_STATUS-H-V&quot;}"><path d="M 97 167 L 124.5 207 Q 152 247 175.5 248.5 L 199 250" class="road curved bridge" marker-end="url(#end_1)" style="stroke: rgb(0, 0, 0); stroke-width: 1.2px;"></path><text class="link-label" transform="rotate(55 125,207)"><tspan x="125" y="207" dy="1.2em">DEMO_ADMIN</tspan></text></g><g data-render="0" data-label="true" class="link" data-obj="BPMStateTransition" data-id="96" data-from="BPMState" data-fromid="48" data-to="BPMState" data-toid="60" data-tpl="Transition" data-keys="{&quot;stm_name&quot;:&quot;DEMO_ORD_STATUS-V-H&quot;}"><path d="M 266 234 L 218.5 192.5 Q 171 151 157.5 150 L 144 149" class="road curved bridge" marker-end="url(#end_1)" style="stroke: rgb(0, 0, 0); stroke-width: 1.2px;"></path><text class="link-label" transform="rotate(41 219,193)"><tspan x="219" y="193" dy="1.2em">DEMO_ADMIN</tspan></text></g></g><g class="nodes"><g data-x="512.4921875" data-y="244" transform="translate(512.4921875 244)" data-color="#E06666" class="node" data-obj="BPMState" data-id="45" data-tpl="State" data-keys="{&quot;sta_state_id__lov_list_id__lov_name&quot;:&quot;DEMO_ORD_STATUS&quot;,&quot;sta_state_id__lov_code&quot;:&quot;C&quot;}" data-w="188.375" data-h="44"><rect x="0" y="0" width="188.375" height="44" rx="7" ry="7" class="border" filter="url(#shadow)"></rect><g class="content" data-obj="BPMState"><g class="item title empty" data-id="45"><rect x="1" y="0" width="186.375" height="44" class="border-item" rx="7" ry="7" style="fill: rgb(224, 102, 102);"></rect><text x="94.1875" y="22" dy="0.5em">C / Cancelled state</text></g></g><rect x="0" y="0" width="188.375" height="44" class="resize"></rect></g><g data-x="208.03125" data-y="418" transform="translate(208.03125 418)" data-color="#6AA84F" class="node" data-obj="BPMState" data-id="46" data-tpl="State" data-keys="{&quot;sta_state_id__lov_list_id__lov_name&quot;:&quot;DEMO_ORD_STATUS&quot;,&quot;sta_state_id__lov_code&quot;:&quot;D&quot;}" data-w="174.34375" data-h="44"><rect x="0" y="0" width="174.34375" height="44" rx="7" ry="7" class="border" filter="url(#shadow)"></rect><g class="content" data-obj="BPMState"><g class="item title empty" data-id="46"><rect x="1" y="0" width="172.34375" height="44" class="border-item" rx="7" ry="7" style="fill: rgb(106, 168, 79);"></rect><text x="87.171875" y="22" dy="0.5em">D / Shipped state</text></g></g><rect x="0" y="0" width="174.34375" height="44" class="resize"></rect></g><g data-x="209.046875" data-y="20" transform="translate(209.046875 20)" data-color="#3D85C6" class="node" data-obj="BPMState" data-id="47" data-tpl="State" data-keys="{&quot;sta_state_id__lov_list_id__lov_name&quot;:&quot;DEMO_ORD_STATUS&quot;,&quot;sta_state_id__lov_code&quot;:&quot;P&quot;}" data-w="173.328125" data-h="44"><rect x="0" y="0" width="173.328125" height="44" rx="7" ry="7" class="border" filter="url(#shadow)"></rect><g class="content" data-obj="BPMState"><g class="item title empty" data-id="47"><rect x="1" y="0" width="171.328125" height="44" class="border-item" rx="7" ry="7" style="fill: rgb(61, 133, 198);"></rect><text x="86.6640625" y="22" dy="0.5em">P / Pending state</text></g></g><rect x="0" y="0" width="173.328125" height="44" class="resize"></rect></g><g data-x="199" data-y="234" transform="translate(199 234)" data-color="#E69138" class="node" data-obj="BPMState" data-id="48" data-tpl="State" data-keys="{&quot;sta_state_id__lov_list_id__lov_name&quot;:&quot;DEMO_ORD_STATUS&quot;,&quot;sta_state_id__lov_code&quot;:&quot;V&quot;}" data-w="183.375" data-h="44"><rect x="0" y="0" width="183.375" height="44" rx="7" ry="7" class="border" filter="url(#shadow)"></rect><g class="content" data-obj="BPMState"><g class="item title empty" data-id="48"><rect x="1" y="0" width="181.375" height="44" class="border-item" rx="7" ry="7" style="fill: rgb(230, 145, 56);"></rect><text x="91.6875" y="22" dy="0.5em">V / Validated state</text></g></g><rect x="0" y="0" width="183.375" height="44" class="resize"></rect></g><g data-x="20" data-y="124" transform="translate(20 124)" data-color="#8E7CC3" class="node" data-obj="BPMState" data-id="60" data-tpl="State" data-keys="{&quot;sta_state_id__lov_list_id__lov_name&quot;:&quot;DEMO_ORD_STATUS&quot;,&quot;sta_state_id__lov_code&quot;:&quot;H&quot;}" data-w="124" data-h="43.34375"><rect x="0" y="0" width="124" height="43.34375" rx="7" ry="7" class="border" filter="url(#shadow)"></rect><g class="content" data-obj="BPMState"><g class="item title empty" data-id="60"><rect x="1" y="0" width="122" height="43.34375" class="border-item" rx="7" ry="7" style="fill: rgb(142, 124, 195);"></rect><text x="62" y="21.671875" dy="0.5em">H / On hold</text></g></g><rect x="0" y="0" width="124" height="43.34375" class="resize"></rect></g></g></g><g class="foreground"></g></g></svg>