<svg xmlns="http://www.w3.org/2000/svg" class="diagram" data-model="10" width="30020" height="30020"><style>svg{font-family:"Helvetica Neue",Helvetica,sans-serif;font-size:12px;background-color:#fff}svg .note .border{fill:#f9ed5a;stroke:#b5af62}svg .cont .border,svg .node .border,svg .caption .border{fill:#fff;stroke:#000}svg .cont .sep,svg .node .sep,svg .caption .sep{stroke:#000}svg .cont .head{stroke:none;fill:none;fill-opacity:.5}svg .cont .border{fill-opacity:.2}svg .cont text{font-weight:bold}svg .node .item rect{fill:none;stroke:none}svg .node .item text{dominant-baseline:text-after-edge;alignment-baseline:after-edge;fill:#000}svg .node .item.title rect{fill-opacity:.3}svg .node .item.title text{font-weight:bold}svg .node .item.empty text{text-anchor:middle}svg .caption text.title{font-weight:bold}svg .resize{fill:none;stroke:transparent;stroke-opacity:0;stroke-width:5px}svg .shape{fill:#fff;stroke:#000}svg .shape-title{font-weight:bold;fill:#000;dominant-baseline:text-after-edge;alignment-baseline:after-edge;text-anchor:middle}svg .link .border{fill:none;stroke:transparent;stroke-opacity:0;stroke-width:10px}svg .link .road{fill:none;stroke:#000;stroke-width:1.5;stroke-linejoin:round;stroke-linecap:round}svg .link .road.dashed{stroke-dasharray:5}svg .link .link-label{text-anchor:middle}</style><defs><filter id="shadow" height="130%"><feGaussianBlur in="SourceAlpha" stdDeviation="3"></feGaussianBlur><feOffset dx="2" dy="2" result="offsetblur"></feOffset><feComponentTransfer><feFuncA type="linear" slope="0.5"></feFuncA></feComponentTransfer><feMerge><feMergeNode></feMergeNode><feMergeNode in="SourceGraphic"></feMergeNode></feMerge></filter><marker id="start_1" markerWidth="12" markerHeight="12" refX="2" refY="6" orient="auto" markerUnits="strokeWidth"><path d="M10,2 L2,6 L10,10" fill="none" stroke="#000"></path></marker><marker id="end_1" markerWidth="12" markerHeight="12" refX="11" refY="6" orient="auto" markerUnits="strokeWidth"><path d="M2,2 L10,6 L2,10" fill="none" stroke="#000"></path></marker><marker id="start_2" markerWidth="12" markerHeight="12" refX="2" refY="6" orient="auto" markerUnits="strokeWidth"><path d="M10,2 L2,6 L10,10z" fill="#fff" stroke="#000"></path></marker><marker id="end_2" markerWidth="12" markerHeight="12" refX="11" refY="6" orient="auto" markerUnits="strokeWidth"><path d="M2,2 L10,6 L2,10z" fill="#fff" stroke="#000"></path></marker><marker id="start_3" markerWidth="22" markerHeight="12" refX="2" refY="6" orient="auto" markerUnits="strokeWidth"><path d="M10,2 L2,6 L10,10 L18,6z" fill="#000" stroke="#000"></path></marker><marker id="end_3" markerWidth="22" markerHeight="12" refX="19" refY="6" orient="auto" markerUnits="strokeWidth"><path d="M10,2 L2,6 L10,10 L18,6z" fill="#000" stroke="#000"></path></marker><marker id="start_4" markerWidth="22" markerHeight="12" refX="2" refY="6" orient="auto" markerUnits="strokeWidth"><path d="M10,2 L2,6 L10,10 L18,6z" fill="#fff" stroke="#000"></path></marker><marker id="end_4" markerWidth="22" markerHeight="12" refX="19" refY="6" orient="auto" markerUnits="strokeWidth"><path d="M10,2 L2,6 L10,10 L18,6z" fill="#fff" stroke="#000"></path></marker><marker id="start_6" markerWidth="16" markerHeight="16" refX="2" refY="8" orient="auto" markerUnits="strokeWidth"><path d="M0,0 L16,8 L0,16" fill="none" stroke="#000"></path></marker><marker id="end_6" markerWidth="12" markerHeight="16" refX="15" refY="8" orient="auto" markerUnits="strokeWidth"><path d="M16,0 L0,8 L16,16" fill="none" stroke="#000"></path></marker><pattern id="grid" width="20" height="20" patternUnits="userSpaceOnUse"><path d="M 20 0 L 0 0 0 20" stroke="#999" stroke-width="0.3" fill="none"></path></pattern></defs><g class="viewport" data-grid="20" transform="matrix(1 0 0 1 0 0)" data-zoom="1" data-x="0" data-y="0"><g class="background"><g class="grid"><rect x="-30000" y="-30000" width="60000" height="60000" fill="url(#grid)"></rect><line x1="-30000" y1="0" x2="30000" y2="0" class="axis"></line><line x1="0" y1="-30000" x2="0" y2="30000" class="axis"></line></g></g><g class="body"><g class="containers"></g><g class="links"><g data-render="0" data-label="true" class="link" data-obj="BPMStateTransition" data-id="70" data-from="BPMState" data-fromid="45" data-to="BPMState" data-toid="42" data-tpl="Transition" data-keys="{&quot;stm_name&quot;:&quot;DEMO_ORD_STATUS-P-C&quot;}"><path d="M 223 64 L 315.18359375 205 Q 407.3671875 346 433.68359375 361 L 460 376" class="road curved bridge" marker-end="url(#end_1)" style="stroke: rgb(0, 0, 0); stroke-width: 1.2px;"></path><text class="link-label" transform="rotate(57 315,205)"><tspan x="315" y="205" dy="1.2em">Alert:DemoOrderCancellation</tspan><tspan x="315" y="205" dy="2.4em">DEMO_ADMIN</tspan><tspan x="315" y="205" dy="3.5999999999999996em">DEMO_USER</tspan></text></g><g data-render="0" data-label="true" class="link" data-obj="BPMStateTransition" data-id="76" data-from="BPMState" data-fromid="45" data-to="BPMState" data-toid="48" data-tpl="Transition" data-keys="{&quot;stm_name&quot;:&quot;DEMO_ORD_STATUS-P-H&quot;}"><path d="M 196 64 L 161.68359375 126.5 Q 127.3671875 189 110.68359375 202.5 L 94 216" class="road curved bridge" marker-end="url(#end_1)" style="stroke: rgb(0, 0, 0); stroke-width: 1.2px;"></path><text class="link-label" transform="rotate(-61 162,127)"><tspan x="162" y="127" dy="1.2em">DEMO_ADMIN</tspan></text></g><g data-render="0" data-label="true" class="link" data-obj="BPMStateTransition" data-id="78" data-from="BPMState" data-fromid="42" data-to="BPMState" data-toid="45" data-tpl="Transition" data-keys="{&quot;stm_name&quot;:&quot;DEMO_ORD_STATUS-C-P&quot;}"><path d="M 485 376 L 394.18359375 231 Q 303.3671875 86 279.68359375 75 L 256 64" class="road curved bridge" marker-end="url(#end_1)" style="stroke: rgb(0, 0, 0); stroke-width: 1.2px;"></path><text class="link-label" transform="rotate(58 394,231)"><tspan x="394" y="231" dy="1.2em">DEMO_ADMIN</tspan></text></g><g data-render="0" data-label="true" class="link" data-obj="BPMStateTransition" data-id="75" data-from="BPMState" data-fromid="48" data-to="BPMState" data-toid="45" data-tpl="Transition" data-keys="{&quot;stm_name&quot;:&quot;DEMO_ORD_STATUS-H-P&quot;}"><path d="M 79 216 L 112.18359375 153 Q 145.3671875 90 162.68359375 77 L 180 64" class="road curved bridge" marker-end="url(#end_1)" style="stroke: rgb(0, 0, 0); stroke-width: 1.2px;"></path><text class="link-label" transform="rotate(-62 112,153)"><tspan x="112" y="153" dy="1.2em">DEMO_ADMIN</tspan></text></g><g data-render="0" data-label="true" class="link" data-obj="BPMStateTransition" data-id="80" data-from="BPMState" data-fromid="47" data-to="BPMState" data-toid="42" data-tpl="Transition" data-keys="{&quot;stm_name&quot;:&quot;DEMO_ORD_STATUS-V-C&quot;}"><path d="M 278 382 L 331.18359375 369.5 Q 384.3671875 357 410.68359375 366.5 L 437 376" class="road curved bridge" marker-end="url(#end_1)" style="stroke: rgb(0, 0, 0); stroke-width: 1.2px;"></path><text class="link-label" transform="rotate(-13 331,370)"><tspan x="331" y="370" dy="1.2em">Alert:DemoOrderCancellation</tspan><tspan x="331" y="370" dy="2.4em">DEMO_ADMIN</tspan><tspan x="331" y="370" dy="3.5999999999999996em">DEMO_USER</tspan></text></g><g data-render="0" data-label="true" class="link" data-obj="BPMStateTransition" data-id="82" data-from="BPMState" data-fromid="47" data-to="BPMState" data-toid="49" data-tpl="Transition" data-keys="{&quot;stm_name&quot;:&quot;DEMO_ORD_STATUS-V-D&quot;}"><path d="M 212 420 L 212 585" class="road curved bridge" marker-end="url(#end_1)" style="stroke: rgb(0, 0, 0); stroke-width: 1.2px;"></path><text class="link-label" transform="rotate(90 212,503)"><tspan x="212" y="503" dy="1.2em">Alert:DemoOrderDelivery</tspan><tspan x="212" y="503" dy="2.4em">DEMO_ADMIN</tspan><tspan x="212" y="503" dy="3.5999999999999996em">DEMO_USER</tspan></text></g><g data-render="0" data-label="true" class="link" data-obj="BPMStateTransition" data-id="72" data-from="BPMState" data-fromid="47" data-to="BPMState" data-toid="48" data-tpl="Transition" data-keys="{&quot;stm_name&quot;:&quot;DEMO_ORD_STATUS-V-H&quot;}" data-px1="11" data-py1="18" data-px2="77" data-py2="70"><path d="M 158 376 L 145.68359375 330 Q 133.3671875 284 120.18359375 272 L 107 260" class="road curved bridge" marker-end="url(#end_1)" style="stroke: rgb(0, 0, 0); stroke-width: 1.2px;"></path><text class="link-label" transform="rotate(75 146,330)"><tspan x="146" y="330" dy="1.2em">DEMO_ADMIN</tspan></text></g><g data-render="0" data-label="true" class="link" data-obj="BPMStateTransition" data-id="69" data-from="BPMState" data-fromid="47" data-to="BPMState" data-toid="45" data-tpl="Transition" data-keys="{&quot;stm_name&quot;:&quot;DEMO_ORD_STATUS-V-P&quot;}"><path d="M 209 376 L 197.68359375 262 Q 186.3671875 148 195.18359375 106 L 204 64" class="road curved bridge" marker-end="url(#end_1)" style="stroke: rgb(0, 0, 0); stroke-width: 1.2px;"></path><text class="link-label" transform="rotate(84 198,262)"><tspan x="198" y="262" dy="1.2em">DEMO_ADMIN</tspan></text></g><g data-render="0" data-label="true" class="link" data-obj="BPMStateTransition" data-id="73" data-from="BPMState" data-fromid="42" data-to="BPMState" data-toid="47" data-tpl="Transition" data-keys="{&quot;stm_name&quot;:&quot;DEMO_ORD_STATUS-C-V&quot;}"><path d="M 430 415 L 366.18359375 431.5 Q 302.3671875 448 277.18359375 434 L 252 420" class="road curved bridge" marker-end="url(#end_1)" style="stroke: rgb(0, 0, 0); stroke-width: 1.2px;"></path><text class="link-label" transform="rotate(-14 366,432)"><tspan x="366" y="432" dy="1.2em">DEMO_ADMIN</tspan></text></g><g data-render="0" data-label="true" class="link" data-obj="BPMStateTransition" data-id="77" data-from="BPMState" data-fromid="48" data-to="BPMState" data-toid="47" data-tpl="Transition" data-keys="{&quot;stm_name&quot;:&quot;DEMO_ORD_STATUS-H-V&quot;}"><path d="M 75 260 L 94.68359375 314 Q 114.3671875 368 129.68359375 372.5 L 145 377" class="road curved bridge" marker-end="url(#end_1)" style="stroke: rgb(0, 0, 0); stroke-width: 1.2px;"></path><text class="link-label" transform="rotate(70 95,314)"><tspan x="95" y="314" dy="1.2em">DEMO_ADMIN</tspan></text></g><g data-render="0" data-label="true" class="link" data-obj="BPMStateTransition" data-id="81" data-from="BPMState" data-fromid="45" data-to="BPMState" data-toid="47" data-tpl="Transition" data-keys="{&quot;stm_name&quot;:&quot;DEMO_ORD_STATUS-P-V&quot;}"><path d="M 212 64 L 234.18359375 199.5 Q 256.3671875 335 241.68359375 355.5 L 227 376" class="road curved bridge" marker-end="url(#end_1)" style="stroke: rgb(0, 0, 0); stroke-width: 1.2px;"></path><text class="link-label" transform="rotate(81 234,200)"><tspan x="234" y="200" dy="1.2em">DEMO_ADMIN</tspan></text></g></g><g class="nodes"><g data-x="430.3671875" data-y="376" transform="translate(430.3671875 376)" data-color="#CC0000" class="node" data-obj="BPMState" data-id="42" data-tpl="State" data-keys="{&quot;sta_state_id__lov_list_id__lov_name&quot;:&quot;DEMO_ORD_STATUS&quot;,&quot;sta_state_id__lov_code&quot;:&quot;C&quot;}" data-w="137.03125" data-h="44"><rect x="0" y="0" width="137.03125" height="44" rx="7" ry="7" class="border" filter="url(#shadow)"></rect><g class="content" data-obj="BPMState"><g class="item title empty" data-id="42"><rect x="1" y="0" width="135.03125" height="44" class="border-item" rx="7" ry="7" style="fill: rgb(204, 0, 0);"></rect><text x="68.515625" y="22" dy="0.5em">C / Cancelled state</text></g></g><rect x="0" y="0" width="137.03125" height="44" class="resize"></rect></g><g data-x="147.8466796875" data-y="585" transform="translate(147.8466796875 585)" data-color="#6AA84F" class="node" data-obj="BPMState" data-id="49" data-tpl="State" data-keys="{&quot;sta_state_id__lov_list_id__lov_name&quot;:&quot;DEMO_ORD_STATUS&quot;,&quot;sta_state_id__lov_code&quot;:&quot;D&quot;}" data-w="127.673828125" data-h="44"><rect x="0" y="0" width="127.673828125" height="44" rx="7" ry="7" class="border" filter="url(#shadow)"></rect><g class="content" data-obj="BPMState"><g class="item title empty" data-id="49"><rect x="1" y="0" width="125.673828125" height="44" class="border-item" rx="7" ry="7" style="fill: rgb(106, 168, 79);"></rect><text x="63.8369140625" y="22" dy="0.5em">D / Shipped state</text></g></g><rect x="0" y="0" width="127.673828125" height="44" class="resize"></rect></g><g data-x="20" data-y="216" transform="translate(20 216)" data-color="#8E7CC3" class="node" data-obj="BPMState" data-id="48" data-tpl="State" data-keys="{&quot;sta_state_id__lov_list_id__lov_name&quot;:&quot;DEMO_ORD_STATUS&quot;,&quot;sta_state_id__lov_code&quot;:&quot;H&quot;}" data-w="94" data-h="44"><rect x="0" y="0" width="94" height="44" rx="7" ry="7" class="border" filter="url(#shadow)"></rect><g class="content" data-obj="BPMState"><g class="item title empty" data-id="48"><rect x="1" y="0" width="92" height="44" class="border-item" rx="7" ry="7" style="fill: rgb(142, 124, 195);"></rect><text x="47" y="22" dy="0.5em">H / On hold</text></g></g><rect x="0" y="0" width="94" height="44" class="resize"></rect></g><g data-x="145" data-y="20" transform="translate(145 20)" data-color="#3D85C6" class="node" data-obj="BPMState" data-id="45" data-tpl="State" data-keys="{&quot;sta_state_id__lov_list_id__lov_name&quot;:&quot;DEMO_ORD_STATUS&quot;,&quot;sta_state_id__lov_code&quot;:&quot;P&quot;}" data-w="126.794921875" data-h="44"><rect x="0" y="0" width="126.794921875" height="44" rx="7" ry="7" class="border" filter="url(#shadow)"></rect><g class="content" data-obj="BPMState"><g class="item title empty" data-id="45"><rect x="1" y="0" width="124.794921875" height="44" class="border-item" rx="7" ry="7" style="fill: rgb(61, 133, 198);"></rect><text x="63.3974609375" y="22" dy="0.5em">P / Pending state</text></g></g><rect x="0" y="0" width="126.794921875" height="44" class="resize"></rect></g><g data-x="145" data-y="376" transform="translate(145 376)" data-color="#F6B26B" class="node" data-obj="BPMState" data-id="47" data-tpl="State" data-keys="{&quot;sta_state_id__lov_list_id__lov_name&quot;:&quot;DEMO_ORD_STATUS&quot;,&quot;sta_state_id__lov_code&quot;:&quot;V&quot;}" data-w="133.3671875" data-h="44"><rect x="0" y="0" width="133.3671875" height="44" rx="7" ry="7" class="border" filter="url(#shadow)"></rect><g class="content" data-obj="BPMState"><g class="item title empty" data-id="47"><rect x="1" y="0" width="131.3671875" height="44" class="border-item" rx="7" ry="7" style="fill: rgb(246, 178, 107);"></rect><text x="66.68359375" y="22" dy="0.5em">V / Validated state</text></g></g><rect x="0" y="0" width="133.3671875" height="44" class="resize"></rect></g></g></g><g class="foreground"></g></g></svg>