<svg xmlns="http://www.w3.org/2000/svg" class="diagram" data-model="40" width="30020" height="30020"><style>svg{font-family:"Helvetica Neue",Helvetica,sans-serif;font-size:12px;background-color:#fff}svg .note .border{fill:#f9ed5a;stroke:#b5af62}svg .cont .border,svg .node .border,svg .caption .border{fill:#fff;stroke:#000}svg .cont .sep,svg .node .sep,svg .caption .sep{stroke:#000}svg .cont .head{stroke:none;fill:none;fill-opacity:.5}svg .cont .border{fill-opacity:.2}svg .cont text{font-weight:bold}svg .node .item rect{fill:none;stroke:none}svg .node .item text{dominant-baseline:text-after-edge;alignment-baseline:after-edge;fill:#000}svg .node .item.title rect{fill-opacity:.3}svg .node .item.title text{font-weight:bold}svg .node .item.empty text{text-anchor:middle}svg .caption text.title{font-weight:bold}svg .resize{fill:none;stroke:transparent;stroke-opacity:0;stroke-width:5px}svg .shape{fill:#fff;stroke:#000}svg .shape-title{font-weight:bold;fill:#000;dominant-baseline:text-after-edge;alignment-baseline:after-edge;text-anchor:middle}svg .link .border{fill:none;stroke:transparent;stroke-opacity:0;stroke-width:10px}svg .link .road{fill:none;stroke:#000;stroke-width:1.5;stroke-linejoin:round;stroke-linecap:round}svg .link .road.dashed{stroke-dasharray:5}svg .link .link-label{text-anchor:middle}</style><defs><filter id="shadow" height="130%"><feGaussianBlur in="SourceAlpha" stdDeviation="3"></feGaussianBlur><feOffset dx="2" dy="2" result="offsetblur"></feOffset><feComponentTransfer><feFuncA type="linear" slope="0.5"></feFuncA></feComponentTransfer><feMerge><feMergeNode></feMergeNode><feMergeNode in="SourceGraphic"></feMergeNode></feMerge></filter><marker id="start_1" markerWidth="12" markerHeight="12" refX="2" refY="6" orient="auto" markerUnits="strokeWidth"><path d="M10,2 L2,6 L10,10" fill="none" stroke="#000"></path></marker><marker id="end_1" markerWidth="12" markerHeight="12" refX="11" refY="6" orient="auto" markerUnits="strokeWidth"><path d="M2,2 L10,6 L2,10" fill="none" stroke="#000"></path></marker><marker id="start_2" markerWidth="12" markerHeight="12" refX="2" refY="6" orient="auto" markerUnits="strokeWidth"><path d="M10,2 L2,6 L10,10z" fill="#fff" stroke="#000"></path></marker><marker id="end_2" markerWidth="12" markerHeight="12" refX="11" refY="6" orient="auto" markerUnits="strokeWidth"><path d="M2,2 L10,6 L2,10z" fill="#fff" stroke="#000"></path></marker><marker id="start_3" markerWidth="22" markerHeight="12" refX="2" refY="6" orient="auto" markerUnits="strokeWidth"><path d="M10,2 L2,6 L10,10 L18,6z" fill="#000" stroke="#000"></path></marker><marker id="end_3" markerWidth="22" markerHeight="12" refX="19" refY="6" orient="auto" markerUnits="strokeWidth"><path d="M10,2 L2,6 L10,10 L18,6z" fill="#000" stroke="#000"></path></marker><marker id="start_4" markerWidth="22" markerHeight="12" refX="2" refY="6" orient="auto" markerUnits="strokeWidth"><path d="M10,2 L2,6 L10,10 L18,6z" fill="#fff" stroke="#000"></path></marker><marker id="end_4" markerWidth="22" markerHeight="12" refX="19" refY="6" orient="auto" markerUnits="strokeWidth"><path d="M10,2 L2,6 L10,10 L18,6z" fill="#fff" stroke="#000"></path></marker><marker id="start_6" markerWidth="16" markerHeight="16" refX="2" refY="8" orient="auto" markerUnits="strokeWidth"><path d="M0,0 L16,8 L0,16" fill="none" stroke="#000"></path></marker><marker id="end_6" markerWidth="12" markerHeight="16" refX="15" refY="8" orient="auto" markerUnits="strokeWidth"><path d="M16,0 L0,8 L16,16" fill="none" stroke="#000"></path></marker><pattern id="grid" width="20" height="20" patternUnits="userSpaceOnUse"><path d="M 20 0 L 0 0 0 20" stroke="#999" stroke-width="0.3" fill="none"></path></pattern></defs><g class="viewport" data-grid="20" transform="matrix(1 0 0 1 0 0)" data-zoom="1" data-x="0" data-y="0"><g class="background"><g class="grid"><rect x="-30000" y="-30000" width="60000" height="60000" fill="url(#grid)"></rect><line x1="-30000" y1="0" x2="30000" y2="0" class="axis"></line><line x1="0" y1="-30000" x2="0" y2="30000" class="axis"></line></g></g><g class="body"><g class="containers"></g><g class="links"><g data-render="0" data-label="true" class="link" data-obj="BPMStateTransition" data-id="73" data-from="BPMState" data-fromid="47" data-to="BPMState" data-toid="45" data-tpl="Transition" data-keys="{&quot;stm_name&quot;:&quot;DEMO_ORD_STATUS-P-C&quot;}" data-px1="57" data-py1="41"><path d="M 327 64 L 404.91015625 171.5 Q 482.8203125 279 518.91015625 290 L 555 301" class="road curved" marker-end="url(#end_1)" style="stroke: rgb(0, 0, 0); stroke-width: 1px;"></path><text class="link-label" transform="rotate(54 405,172)"><tspan x="405" y="172" dy="1.2em">Alert:DemoOrderCancellation</tspan><tspan x="405" y="172" dy="2.4em">DEMO_ADMIN</tspan><tspan x="405" y="172" dy="3.5999999999999996em">DEMO_USER</tspan></text></g><g data-render="0" data-label="true" class="link" data-obj="BPMStateTransition" data-id="71" data-from="BPMState" data-fromid="45" data-to="BPMState" data-toid="47" data-tpl="Transition" data-keys="{&quot;stm_name&quot;:&quot;DEMO_ORD_STATUS-C-P&quot;}" data-w="232" data-h="237" data-px2="86" data-py2="55"><path d="M 610 301 L 523.9998740234375 186.5 Q 437.9997480468751 72 409.99987402343754 62.5 L 382 53" class="road curved" marker-end="url(#end_1)" style="stroke: rgb(0, 0, 0); stroke-width: 1px;"></path><text class="link-label" transform="rotate(53 524,187)"><tspan x="524" y="187" dy="1.2em">DEMO_ADMIN</tspan></text></g><g data-render="0" data-label="true" class="link" data-obj="BPMStateTransition" data-id="75" data-from="BPMState" data-fromid="48" data-to="BPMState" data-toid="45" data-tpl="Transition" data-keys="{&quot;stm_name&quot;:&quot;DEMO_ORD_STATUS-V-C&quot;}"><path d="M 382 311 L 429.41796875 304.5 Q 476.8359375 298 504.41796875 302.5 L 532 307" class="road curved" marker-end="url(#end_1)" style="stroke: rgb(0, 0, 0); stroke-width: 1px;"></path><text class="link-label" transform="rotate(-8 429,305)"><tspan x="429" y="305" dy="1.2em">Alert:DemoOrderCancellation</tspan><tspan x="429" y="305" dy="2.4em">DEMO_ADMIN</tspan><tspan x="429" y="305" dy="3.5999999999999996em">DEMO_USER</tspan></text></g><g data-render="0" data-label="true" class="link" data-obj="BPMStateTransition" data-id="76" data-from="BPMState" data-fromid="48" data-to="BPMState" data-toid="46" data-tpl="Transition" data-keys="{&quot;stm_name&quot;:&quot;DEMO_ORD_STATUS-V-D&quot;}"><path d="M 291 345 L 295 514" class="road curved" marker-end="url(#end_1)" style="stroke: rgb(0, 0, 0); stroke-width: 1px;"></path><text class="link-label" transform="rotate(89 293,430)"><tspan x="293" y="430" dy="1.2em">Alert:DemoOrderDelivery</tspan><tspan x="293" y="430" dy="2.4em">DEMO_ADMIN</tspan><tspan x="293" y="430" dy="3.5999999999999996em">DEMO_USER</tspan></text></g><g data-render="0" data-label="true" class="link" data-obj="BPMStateTransition" data-id="77" data-from="BPMState" data-fromid="48" data-to="BPMState" data-toid="47" data-tpl="Transition" data-keys="{&quot;stm_name&quot;:&quot;DEMO_ORD_STATUS-V-P&quot;}" data-px2="54" data-py2="59"><path d="M 296 301 L 309.91796875 246 Q 323.8359375 191 314.41796875 127.5 L 305 64" class="road curved" marker-end="url(#end_1)" style="stroke: rgb(0, 0, 0); stroke-width: 1px;"></path><text class="link-label" transform="rotate(-76 310,246)"><tspan x="310" y="246" dy="1.2em">DEMO_ADMIN</tspan></text></g><g data-render="0" data-label="true" class="link" data-obj="BPMStateTransition" data-id="72" data-from="BPMState" data-fromid="45" data-to="BPMState" data-toid="48" data-tpl="Transition" data-keys="{&quot;stm_name&quot;:&quot;DEMO_ORD_STATUS-C-V&quot;}"><path d="M 533 345 L 468.6640625 360 Q 404.328125 375 371.6640625 360 L 339 345" class="road curved" marker-end="url(#end_1)" style="stroke: rgb(0, 0, 0); stroke-width: 1px;"></path><text class="link-label" transform="rotate(-13 469,360)"><tspan x="469" y="360" dy="1.2em">DEMO_ADMIN</tspan></text></g><g data-render="0" data-label="true" class="link" data-obj="BPMStateTransition" data-id="74" data-from="BPMState" data-fromid="47" data-to="BPMState" data-toid="48" data-tpl="Transition" data-keys="{&quot;stm_name&quot;:&quot;DEMO_ORD_STATUS-P-V&quot;}"><path d="M 292 64 L 276.41796875 166.5 Q 260.8359375 269 269.91796875 285 L 279 301" class="road curved" marker-end="url(#end_1)" style="stroke: rgb(0, 0, 0); stroke-width: 1px;"></path><text class="link-label" transform="rotate(-81 276,167)"><tspan x="276" y="167" dy="1.2em">DEMO_ADMIN</tspan></text></g><g data-render="0" data-label="true" class="link" data-obj="BPMStateTransition" data-id="93" data-from="BPMState" data-fromid="47" data-to="BPMState" data-toid="60" data-tpl="Transition" data-keys="{&quot;stm_name&quot;:&quot;DEMO_ORD_STATUS-P-H&quot;}"><path d="M 263 64 L 192.1640625 111 Q 121.328125 158 110.1640625 173 L 99 188" class="road curved bridge" marker-end="url(#end_1)" style="stroke: rgb(0, 0, 0); stroke-width: 1px;"></path><text class="link-label" transform="rotate(-34 192,111)"><tspan x="192" y="111" dy="1.2em">DEMO_ADMIN</tspan></text></g><g data-render="0" data-label="true" class="link" data-obj="BPMStateTransition" data-id="94" data-from="BPMState" data-fromid="60" data-to="BPMState" data-toid="47" data-tpl="Transition" data-keys="{&quot;stm_name&quot;:&quot;DEMO_ORD_STATUS-H-P&quot;}"><path d="M 144 193 L 193 179.5 Q 242 166 264 115 L 286 64" class="road curved bridge" marker-end="url(#end_1)" style="stroke: rgb(0, 0, 0); stroke-width: 1px;"></path><text class="link-label" transform="rotate(-15 193,180)"><tspan x="193" y="180" dy="1.2em">DEMO_ADMIN</tspan></text></g><g data-render="0" data-label="true" class="link" data-obj="BPMStateTransition" data-id="95" data-from="BPMState" data-fromid="60" data-to="BPMState" data-toid="48" data-tpl="Transition" data-keys="{&quot;stm_name&quot;:&quot;DEMO_ORD_STATUS-H-V&quot;}"><path d="M 102 232 L 136.1640625 270.5 Q 170.328125 309 184.6640625 310.5 L 199 312" class="road curved bridge" marker-end="url(#end_1)" style="stroke: rgb(0, 0, 0); stroke-width: 1px;"></path><text class="link-label" transform="rotate(48 136,271)"><tspan x="136" y="271" dy="1.2em">DEMO_ADMIN</tspan></text></g><g data-render="0" data-label="true" class="link" data-obj="BPMStateTransition" data-id="96" data-from="BPMState" data-fromid="48" data-to="BPMState" data-toid="60" data-tpl="Transition" data-keys="{&quot;stm_name&quot;:&quot;DEMO_ORD_STATUS-V-H&quot;}" data-px1="18" data-py1="34"><path d="M 220 301 L 198.1640625 273.5 Q 176.328125 246 158.1640625 239 L 140 232" class="road curved bridge" marker-end="url(#end_1)" style="stroke: rgb(0, 0, 0); stroke-width: 1px;"></path><text class="link-label" transform="rotate(52 198,274)"><tspan x="198" y="274" dy="1.2em">DEMO_ADMIN</tspan></text></g></g><g class="nodes"><g data-x="532.4921875" data-y="301" transform="translate(532.4921875 301)" data-color="#E06666" class="node" data-obj="BPMState" data-id="45" data-tpl="State" data-keys="{&quot;sta_state_id__lov_list_id__lov_name&quot;:&quot;DEMO_ORD_STATUS&quot;,&quot;sta_state_id__lov_code&quot;:&quot;C&quot;}" data-w="188.375" data-h="44"><rect x="0" y="0" width="188.375" height="44" rx="7" ry="7" class="border" filter="url(#shadow)"></rect><g class="content" data-obj="BPMState"><g class="item title empty" data-id="45"><rect x="1" y="0" width="186.375" height="44" class="border-item" rx="7" ry="7" style="fill: rgb(224, 102, 102);"></rect><text x="94.1875" y="22" dy="0.5em">C / Cancelled state</text></g></g><rect x="0" y="0" width="188.375" height="44" class="resize"></rect></g><g data-x="208.03125" data-y="514" transform="translate(208.03125 514)" data-color="#6AA84F" class="node" data-obj="BPMState" data-id="46" data-tpl="State" data-keys="{&quot;sta_state_id__lov_list_id__lov_name&quot;:&quot;DEMO_ORD_STATUS&quot;,&quot;sta_state_id__lov_code&quot;:&quot;D&quot;}" data-w="174.34375" data-h="44"><rect x="0" y="0" width="174.34375" height="44" rx="7" ry="7" class="border" filter="url(#shadow)"></rect><g class="content" data-obj="BPMState"><g class="item title empty" data-id="46"><rect x="1" y="0" width="172.34375" height="44" class="border-item" rx="7" ry="7" style="fill: rgb(106, 168, 79);"></rect><text x="87.171875" y="22" dy="0.5em">D / Shipped state</text></g></g><rect x="0" y="0" width="174.34375" height="44" class="resize"></rect></g><g data-x="209.046875" data-y="20" transform="translate(209.046875 20)" data-color="#3D85C6" class="node" data-obj="BPMState" data-id="47" data-tpl="State" data-keys="{&quot;sta_state_id__lov_list_id__lov_name&quot;:&quot;DEMO_ORD_STATUS&quot;,&quot;sta_state_id__lov_code&quot;:&quot;P&quot;}" data-w="173.328125" data-h="44"><rect x="0" y="0" width="173.328125" height="44" rx="7" ry="7" class="border" filter="url(#shadow)"></rect><g class="content" data-obj="BPMState"><g class="item title empty" data-id="47"><rect x="1" y="0" width="171.328125" height="44" class="border-item" rx="7" ry="7" style="fill: rgb(61, 133, 198);"></rect><text x="86.6640625" y="22" dy="0.5em">P / Pending state</text></g></g><rect x="0" y="0" width="173.328125" height="44" class="resize"></rect></g><g data-x="199" data-y="301" transform="translate(199 301)" data-color="#E69138" class="node" data-obj="BPMState" data-id="48" data-tpl="State" data-keys="{&quot;sta_state_id__lov_list_id__lov_name&quot;:&quot;DEMO_ORD_STATUS&quot;,&quot;sta_state_id__lov_code&quot;:&quot;V&quot;}" data-w="183.375" data-h="44"><rect x="0" y="0" width="183.375" height="44" rx="7" ry="7" class="border" filter="url(#shadow)"></rect><g class="content" data-obj="BPMState"><g class="item title empty" data-id="48"><rect x="1" y="0" width="181.375" height="44" class="border-item" rx="7" ry="7" style="fill: rgb(230, 145, 56);"></rect><text x="91.6875" y="22" dy="0.5em">V / Validated state</text></g></g><rect x="0" y="0" width="183.375" height="44" class="resize"></rect></g><g data-x="20" data-y="188" transform="translate(20 188)" data-color="#8E7CC3" class="node" data-obj="BPMState" data-id="60" data-tpl="State" data-keys="{&quot;sta_state_id__lov_list_id__lov_name&quot;:&quot;DEMO_ORD_STATUS&quot;,&quot;sta_state_id__lov_code&quot;:&quot;H&quot;}" data-w="124" data-h="44"><rect x="0" y="0" width="124" height="44" rx="7" ry="7" class="border" filter="url(#shadow)"></rect><g class="content" data-obj="BPMState"><g class="item title empty" data-id="60"><rect x="1" y="0" width="122" height="44" class="border-item" rx="7" ry="7" style="fill: rgb(142, 124, 195);"></rect><text x="62" y="22" dy="0.5em">H / On hold</text></g></g><rect x="0" y="0" width="124" height="44" class="resize"></rect></g></g></g><g class="foreground"></g></g></svg>