<svg width="480" height="120" xmlns="http://www.w3.org/2000/svg">

 <g>
  <title>Layer 1</title>
  <g id="svg_1">
   <path fill="#418cf0" id="svg_2" d="m40.7413,91.14182c-19.80335,0 -29.93531,-9.67188 -30.7413,-24.75492l11.28289,0c0.57619,9.09617 7.02459,14.16191 19.45841,14.16191c11.1692,0 17.38587,-4.14509 17.38587,-11.51366c0,-6.21763 -3.79919,-9.67187 -10.93795,-11.05357l-15.88806,-3.10882c-12.5509,-2.41797 -19.57404,-9.55625 -19.57404,-20.72496c0,-13.5862 10.7067,-22.45199 27.40268,-22.45199c17.96206,0 27.51783,9.78692 28.66876,24.17911l-11.28289,0c-1.15093,-8.2897 -7.13828,-13.5862 -17.84643,-13.5862c-9.90265,0 -15.65923,4.14509 -15.65923,11.16823c0,5.64193 3.68404,9.09617 10.70863,10.47787l16.34911,3.22395c12.5509,2.41797 19.34424,9.55626 19.34424,21.30068c0,14.62247 -10.59301,22.68237 -28.67069,22.68237zm38.81522,-1.15142l0,-55.03661l11.28434,0l0,55.03661l-11.28434,0zm-0.34542,-66.31998l0,-12.0897l11.9747,0l0,12.0897l-11.9747,0zm23.8454,66.31998l0,-55.03661l10.13195,0l1.15093,6.56306l0.80599,0c4.03044,-5.18137 8.98103,-7.71448 15.31332,-7.71448c6.90897,0 12.32013,3.22396 15.31381,8.75075l0.80599,0c5.29699,-5.98735 10.70815,-8.75075 17.27169,-8.75075c11.16775,0 18.19186,7.59934 18.19186,19.57404l0,36.61399l-11.28434,0l0,-35.00249c0,-6.67772 -4.37441,-11.39852 -10.59301,-11.39852c-7.02266,0 -11.97471,5.29651 -11.97471,12.89535l0,33.50566l-11.28289,0l0,-35.00249c0,-6.67772 -4.37585,-11.39852 -10.593,-11.39852c-7.02266,0 -11.97471,5.29651 -11.97471,12.89535l0,33.50566l-11.28288,0zm90.4063,21.8759l0,-76.91251l9.32645,0l1.15093,6.90848l1.6115,0c3.68549,-5.2965 9.44159,-8.0599 16.81113,-8.0599c14.50781,0 24.86957,11.85957 24.86957,28.66973c0,16.81015 -10.36176,28.66972 -25.21451,28.66972c-6.56355,0 -12.09033,-2.30283 -16.23494,-6.79334l-1.03724,0l0,27.51782l-11.28289,0zm11.28289,-49.3942c0,11.85956 5.75804,18.8827 15.65875,18.8827c9.5577,0 15.3138,-7.02314 15.3138,-18.8827c0,-11.85908 -5.7561,-18.88271 -15.3138,-18.88271c-9.90071,0 -15.65875,7.02363 -15.65875,18.88271zm51.23792,27.5183l0,-78.40968l11.28482,0l0,78.40968l-11.28482,0zm23.51013,0l0,-55.03661l11.2824,0l0,55.03661l-11.2824,0zm-0.34543,-66.31998l0,-12.0897l11.97616,0l0,12.0897l-11.97616,0zm46.98785,67.4714c-15.88758,0 -26.71474,-11.51414 -26.71474,-28.66972s11.05454,-28.66973 26.94696,-28.66973c14.39267,0 22.91217,7.71448 25.09888,21.30068l-10.59494,0c-2.07061,-7.59885 -6.79237,-11.51366 -14.27656,-11.51366c-9.67091,0 -15.88758,6.79286 -15.88758,18.88271c0,12.20498 6.33278,18.8827 15.6602,18.8827c7.71157,0 12.43333,-3.91481 14.50394,-11.51366l10.59494,0c-2.30282,13.81649 -11.51414,21.30068 -25.3311,21.30068zm33.19749,-1.15142l0,-55.03661l11.28676,0l0,55.03661l-11.28676,0zm-0.34349,-66.31998l0,-12.0897l11.97373,0l0,12.0897l-11.97373,0zm43.64729,66.31998c-9.32742,0 -14.27656,-4.26023 -14.27656,-14.04676l0,-31.77854l-12.66555,0l0,-9.21131l5.87317,0c7.1407,0 7.94379,-4.14461 7.94379,-11.39852l0,-5.75707l10.13051,0l0,17.15559l15.08449,0l0,9.21131l-15.08449,0l0,29.93579c0,4.26023 1.84323,6.21764 7.25681,6.21764l7.82768,0l0,9.67187l-12.08985,0zm42.83937,1.15142c-16.57939,0 -27.86615,-12.08985 -27.86615,-28.66972c0,-16.81016 10.82232,-28.66973 26.83085,-28.66973c15.42797,0 25.55848,10.70815 25.55848,27.05775c0,1.26655 -0.11611,3.10881 -0.22738,4.83593l-40.76392,0c1.15141,9.78702 7.25681,15.88903 16.81161,15.88903c7.36808,0 11.74636,-3.56938 13.47348,-8.75026l10.36272,0c-1.72712,10.59252 -10.82232,18.307 -24.17969,18.307zm-16.11979,-33.96623l29.82065,0c-0.57571,-8.28969 -6.33278,-13.81648 -14.73616,-13.81648c-8.0599,0 -13.47348,5.2965 -15.08449,13.81648z"/>
   <path fill="#418cf0" id="svg_3" d="m439.36659,26.40091l9.32258,-17.40091l11.93503,0l0,1.45499l-11.93503,17.40115l-9.32258,0l0,-1.45523z"/>
  </g>
 </g>
</svg>